# xmcd
#
# Track frame offsets:
#	150
#	18900
#	37050
#	61020
#	79947
#	94726
#	112389
#	128051
#	144417
#	163485
#	179570
#	194901
#	215184
#	230502
#	244895
#	260536
#	277035
#	291943
#	310948
#	332806
#
# Disc length: 4692 seconds
#
# Revision: 1
# Processed by: cddbd v1.5PL3 Copyright (c) Steve Scherf et al.
# Submitted via: EasyCDDAExtractor 5.1.0
#
DISCID=46125214
DTITLE=Barry White - All Time Greatest Hits
DYEAR=1900
DGENRE=soul
TTITLE0=Love's Theme
TTITLE1=I'm Gonna Love You Just A Little Bit More Baby
TTITLE2=I've got so much to give 
TTITLE3=Never never gonna give you up 
TTITLE4=Honey please can't ya see 
TTITLE5=Can't get enough of your love babe
TTITLE6=You're the first my last my everything 
TTITLE7=What am I gonna do with you
TTITLE8=I'll do for you anything you want me to
TTITLE9=Let the music play
TTITLE10=You see the trouble with me
TTITLE11=Baby we better try to get it together
TTITLE12=Don't make me wait too long
TTITLE13=I'm qualified to satisfy you
TTITLE14=It's ecstasy when you lay down next to me
TTITLE15=Playing your game baby
TTITLE16=Oh what a night for dancing
TTITLE17=Your sweetness is my weakness
TTITLE18=Just the way you are
TTITLE19=Satin Soul
EXTD=
EXTT0=
EXTT1=
EXTT2=
EXTT3=
EXTT4=
EXTT5=
EXTT6=
EXTT7=
EXTT8=
EXTT9=
EXTT10=
EXTT11=
EXTT12=
EXTT13=
EXTT14=
EXTT15=
EXTT16=
EXTT17=
EXTT18=
EXTT19=
PLAYORDER=
